<svg width="20" height="23" viewBox="0 0 20 23" fill="none" xmlns="http://www.w3.org/2000/svg">
<path d="M15.7143 7.14286V5.71429C15.7143 2.56339 13.1508 0 10 0C6.84911 0 4.28571 2.56339 4.28571 5.71429V7.14286H0V19.2857C0 21.2582 1.59897 22.8571 3.57143 22.8571H16.4286C18.401 22.8571 20 21.2582 20 19.2857V7.14286H15.7143ZM7.14286 5.71429C7.14286 4.13884 8.42455 2.85714 10 2.85714C11.5754 2.85714 12.8571 4.13884 12.8571 5.71429V7.14286H7.14286V5.71429ZM14.2857 11.0714C13.694 11.0714 13.2143 10.5917 13.2143 10C13.2143 9.40826 13.694 8.92857 14.2857 8.92857C14.8775 8.92857 15.3571 9.40826 15.3571 10C15.3571 10.5917 14.8775 11.0714 14.2857 11.0714ZM5.71429 11.0714C5.12254 11.0714 4.64286 10.5917 4.64286 10C4.64286 9.40826 5.12254 8.92857 5.71429 8.92857C6.30603 8.92857 6.78571 9.40826 6.78571 10C6.78571 10.5917 6.30603 11.0714 5.71429 11.0714Z" fill="white"/>
</svg>
