<svg width="135" height="107" viewBox="0 0 135 107" fill="none" xmlns="http://www.w3.org/2000/svg">
<path d="M33.4681 95.6528C33.4681 96.7179 33.0748 97.6299 32.2881 98.3887C31.4249 99.2311 30.1927 99.6523 28.5915 99.6523C27.8257 99.6523 27.0913 99.5583 26.3881 99.3703C26.3324 99.3564 26.3046 99.3982 26.3046 99.4956V102.534C26.3046 104.115 26.4543 104.905 26.7536 104.905H28.4035C28.4871 104.905 28.5288 104.95 28.5288 105.041V105.469C28.5288 105.552 28.501 105.594 28.4453 105.594H22.2425C22.1868 105.594 22.1589 105.566 22.1589 105.51V105.041C22.1589 104.95 22.1937 104.905 22.2634 104.905H23.7775C23.8959 104.905 23.955 104.821 23.955 104.654V94.17C23.955 92.903 23.868 92.2695 23.694 92.2695H22.4722C22.3747 92.2695 22.326 92.2416 22.326 92.1859V91.6951C22.326 91.6255 22.3678 91.5907 22.4513 91.5907L25.1977 91.4758C25.5597 91.4619 26.4926 91.455 27.9963 91.455C28.8177 91.455 29.5069 91.5002 30.0639 91.5907C30.8993 91.716 31.672 92.1128 32.3821 92.7811C33.1061 93.4773 33.4681 94.4345 33.4681 95.6528ZM31.2648 95.799C31.2648 94.9567 30.9201 94.1526 30.2309 93.3868C29.5487 92.6141 28.4453 92.2277 26.9207 92.2277C26.677 92.2277 26.5308 92.2451 26.4821 92.2799C26.4403 92.3078 26.409 92.3774 26.3881 92.4888C26.3464 92.9134 26.3255 93.9542 26.3255 95.611C26.3255 95.6737 26.322 96.1506 26.315 97.0417C26.3081 97.9328 26.3046 98.4027 26.3046 98.4514C26.3046 98.5489 26.3533 98.6115 26.4508 98.6394C26.9242 98.7995 27.4741 98.8795 28.1007 98.8795C29.1728 98.8795 29.949 98.6359 30.4294 98.1486C30.9863 97.5916 31.2648 96.8084 31.2648 95.799Z" fill="white"/>
<path d="M59.1043 98.1903C59.1043 100.279 58.5578 101.998 57.4649 103.349C56.713 104.275 55.6931 104.943 54.4052 105.354C53.6534 105.598 52.7623 105.719 51.7319 105.719C50.096 105.719 48.7907 105.486 47.816 105.02C47.1616 104.706 46.6186 104.313 46.187 103.84C45.108 102.656 44.5684 100.923 44.5684 98.6394C44.5684 97.6787 44.7042 96.7876 44.9757 95.9661C45.282 95.0332 45.7728 94.2013 46.4481 93.4703C47.1233 92.7394 48.0214 92.1685 49.1422 91.7578C49.9985 91.4445 50.9314 91.2879 51.9408 91.2879C53.4306 91.2879 54.621 91.4793 55.5121 91.8622C56.445 92.266 57.1725 92.809 57.6946 93.4912C58.6344 94.7165 59.1043 96.2828 59.1043 98.1903ZM56.713 98.7125C56.713 97.6404 56.619 96.7771 56.431 96.1227C56.2083 95.3291 55.8254 94.5877 55.2824 93.8985C54.8368 93.3346 54.266 92.8995 53.5698 92.5932C52.8249 92.266 52.0765 92.1024 51.3247 92.1024C50.4197 92.1024 49.7131 92.266 49.2049 92.5932C48.4809 93.0596 47.9413 93.7279 47.5863 94.5981C47.1825 95.5658 46.9806 96.7284 46.9806 98.0859C46.9806 100.105 47.3322 101.709 48.0353 102.9C48.4461 103.603 49.0865 104.174 49.9567 104.612C50.6111 104.94 51.3525 105.103 52.181 105.103C53.0512 105.103 53.8692 104.832 54.6349 104.289C55.2267 103.878 55.7349 103.171 56.1595 102.169C56.5285 101.299 56.713 100.147 56.713 98.7125Z" fill="white"/>
<path d="M85.8474 91.9875C85.8474 92.078 85.8022 92.1233 85.7117 92.1233H84.2393C84.0792 92.1233 83.9991 92.2138 83.9991 92.3948C83.9991 92.4505 83.9921 93.3729 83.9782 95.162C83.9643 96.9442 83.9573 97.9119 83.9573 98.065C83.9573 98.2112 83.9434 99.4539 83.9156 101.793C83.8877 104.132 83.8738 105.364 83.8738 105.49C83.8738 105.768 83.8181 105.932 83.7067 105.98C83.4909 106.064 83.3204 106.022 83.195 105.855C81.2876 103.544 79.3174 101.163 77.2846 98.7125C76.2613 97.3689 75.036 95.8547 73.6089 94.17C73.5045 94.0795 73.4348 94.1108 73.4 94.264C73.3722 94.3475 73.32 95.5171 73.2434 97.7726C73.1599 100.049 73.1181 101.501 73.1181 102.127C73.1181 103.979 73.3095 104.905 73.6924 104.905H74.9768C75.0604 104.905 75.1021 104.936 75.1021 104.999V105.51C75.1021 105.566 75.0673 105.594 74.9977 105.594H70.7059C70.6154 105.594 70.5701 105.573 70.5701 105.531V105.02C70.5701 104.943 70.6154 104.905 70.7059 104.905H71.9799C72.0982 104.905 72.1574 104.856 72.1574 104.759V103.265C72.1574 102.855 72.22 101.229 72.3453 98.3887C72.4776 95.5484 72.5437 94.1004 72.5437 94.0447C72.5437 92.7637 72.0564 92.1233 71.0818 92.1233H70.3822C70.3265 92.1233 70.2986 92.0885 70.2986 92.0188V91.5385C70.2986 91.4689 70.3334 91.4341 70.403 91.4341H74.0997C74.218 91.4341 74.312 91.4932 74.3816 91.6116C74.4512 91.723 75.0604 92.5096 76.209 93.9716C77.3647 95.4266 78.0156 96.2341 78.1618 96.3942C79.6376 98.1555 81.2005 99.983 82.8504 101.877C82.8783 101.897 82.9061 101.908 82.934 101.908C82.9966 101.908 83.0314 101.81 83.0384 101.615C83.0454 101.483 83.0454 100.415 83.0384 98.4096C83.0384 96.4047 83.0314 95.3047 83.0175 95.1098C82.9201 93.1188 82.6555 92.1233 82.2239 92.1233H80.9499C80.8455 92.1233 80.7933 92.0885 80.7933 92.0188V91.5385C80.7933 91.4689 80.8385 91.4341 80.929 91.4341H85.6908C85.7952 91.4341 85.8474 91.4619 85.8474 91.5176V91.9875Z" fill="white"/>
<path d="M111.599 99.3703C111.599 99.4539 111.557 99.4956 111.473 99.4956H110.126C110.043 99.4956 110.001 99.5409 110.001 99.6314C110.001 99.5827 109.994 99.8402 109.98 100.404C109.966 100.968 109.959 101.473 109.959 101.918C109.959 102.969 109.98 103.69 110.022 104.08C110.022 104.191 109.969 104.254 109.865 104.268C109.524 104.414 109.106 104.592 108.612 104.8C106.913 105.427 105.399 105.74 104.069 105.74C102.733 105.74 101.609 105.57 100.697 105.229C99.4922 104.776 98.542 104.076 97.8458 103.13C97.1357 102.155 96.7807 100.752 96.7807 98.9213C96.7807 97.0347 97.3933 95.3744 98.6185 93.9403C99.5375 92.8612 100.871 92.085 102.618 91.6116C103.405 91.3958 104.404 91.2879 105.615 91.2879C106.952 91.2879 108.055 91.4236 108.925 91.6951C109.406 91.8413 109.771 91.9701 110.022 92.0815C110.119 92.1233 110.161 92.179 110.147 92.2486C110.077 92.5967 109.997 93.0039 109.907 93.4703C109.837 93.895 109.747 94.358 109.635 94.8592C109.621 94.9149 109.587 94.9427 109.531 94.9427C109.399 94.9427 109.332 94.9079 109.332 94.8383C109.332 94.8244 109.284 94.6016 109.186 94.17C109.103 93.8219 108.925 93.5365 108.654 93.3137C107.644 92.5062 106.28 92.1024 104.56 92.1024C103.043 92.1024 101.703 92.7429 100.54 94.0238C99.6419 95.0193 99.1929 96.523 99.1929 98.5349C99.1929 100.63 99.708 102.2 100.738 103.244C101.859 104.386 103.363 104.957 105.249 104.957C106.349 104.957 107.147 104.619 107.641 103.944C107.703 103.868 107.735 103.756 107.735 103.61V102.148C107.735 101.487 107.724 101.024 107.703 100.759C107.662 99.9168 107.592 99.4956 107.495 99.4956H105.354C105.27 99.4956 105.229 99.433 105.229 99.3077V98.9631C105.229 98.8656 105.277 98.8169 105.375 98.8169C105.396 98.8169 105.869 98.8204 106.795 98.8273C107.728 98.8343 108.26 98.8378 108.393 98.8378C108.525 98.8378 109.061 98.8343 110.001 98.8273C110.941 98.8204 111.417 98.8169 111.431 98.8169C111.543 98.8169 111.599 98.8586 111.599 98.9422V99.3703Z" fill="white"/>
<path fill-rule="evenodd" clip-rule="evenodd" d="M135 98.9109H116.287V98.2426H135V98.9109Z" fill="white"/>
<path fill-rule="evenodd" clip-rule="evenodd" d="M18.7129 100.248H0V99.5792H18.7129V100.248Z" fill="white"/>
<path fill-rule="evenodd" clip-rule="evenodd" d="M33.3135 71.5709C50.2357 71.5709 63.9538 57.8528 63.9538 40.9306C63.9538 24.0085 50.2357 10.2904 33.3135 10.2904C16.3914 10.2904 2.6733 24.0085 2.6733 40.9306C2.6733 57.8528 16.3914 71.5709 33.3135 71.5709ZM33.3135 72.9075C50.9739 72.9075 65.2904 58.591 65.2904 40.9306C65.2904 23.2703 50.9739 8.95374 33.3135 8.95374C15.6532 8.95374 1.33667 23.2703 1.33667 40.9306C1.33667 58.591 15.6532 72.9075 33.3135 72.9075Z" fill="white"/>
<mask id="mask0_98_295" style="mask-type:alpha" maskUnits="userSpaceOnUse" x="32" y="0" width="38" height="23">
<path d="M32.0344 0H69.1276V22.3838H32.0344V0Z" fill="#D9D9D9"/>
</mask>
<g mask="url(#mask0_98_295)">
<path fill-rule="evenodd" clip-rule="evenodd" d="M33.3137 77.966C53.7679 77.966 70.3493 61.3846 70.3493 40.9304C70.3493 20.4762 53.7679 3.89482 33.3137 3.89482C12.8594 3.89482 -3.72196 20.4762 -3.72196 40.9304C-3.72196 61.3846 12.8594 77.966 33.3137 77.966ZM33.3137 79.3027C54.5061 79.3027 71.6859 62.1228 71.6859 40.9304C71.6859 19.738 54.5061 2.55818 33.3137 2.55818C12.1212 2.55818 -5.05859 19.738 -5.05859 40.9304C-5.05859 62.1228 12.1212 79.3027 33.3137 79.3027Z" fill="white"/>
</g>
<mask id="mask1_98_295" style="mask-type:alpha" maskUnits="userSpaceOnUse" x="62" y="59" width="38" height="23">
<path d="M99.8831 81.861H62.7899V59.4771H99.8831V81.861Z" fill="#D9D9D9"/>
</mask>
<g mask="url(#mask1_98_295)">
<path fill-rule="evenodd" clip-rule="evenodd" d="M98.6038 3.89494C78.1496 3.89494 61.5682 20.4763 61.5682 40.9305C61.5682 61.3848 78.1496 77.9662 98.6038 77.9662C119.058 77.9662 135.639 61.3848 135.639 40.9305C135.639 20.4763 119.058 3.89494 98.6038 3.89494ZM98.6038 2.5583C77.4114 2.5583 60.2316 19.7381 60.2316 40.9305C60.2316 62.123 77.4114 79.3028 98.6038 79.3028C119.796 79.3028 136.976 62.123 136.976 40.9305C136.976 19.7381 119.796 2.5583 98.6038 2.5583Z" fill="white"/>
</g>
<path fill-rule="evenodd" clip-rule="evenodd" d="M97.2672 71.5709C114.189 71.5709 127.907 57.8528 127.907 40.9306C127.907 24.0085 114.189 10.2904 97.2672 10.2904C80.345 10.2904 66.6269 24.0085 66.6269 40.9306C66.6269 57.8528 80.345 71.5709 97.2672 71.5709ZM97.2672 72.9075C114.928 72.9075 129.244 58.591 129.244 40.9306C129.244 23.2703 114.928 8.95374 97.2672 8.95374C79.6068 8.95374 65.2903 23.2703 65.2903 40.9306C65.2903 58.591 79.6068 72.9075 97.2672 72.9075Z" fill="white"/>
<path fill-rule="evenodd" clip-rule="evenodd" d="M32.7478 2.567L32.7478 78.8614H31.4111L31.4111 2.567H32.7478Z" fill="white"/>
<path fill-rule="evenodd" clip-rule="evenodd" d="M135 40.9305H98.5464V39.5939H135V40.9305Z" fill="white"/>
</svg>
