<svg width="397" height="479" viewBox="0 0 397 479" fill="none" xmlns="http://www.w3.org/2000/svg">
<path d="M84.1953 28.8911C84.1953 32.8755 82.724 36.2869 79.7812 39.1255C76.5521 42.2765 71.9427 43.852 65.9531 43.852C63.0885 43.852 60.3411 43.5005 57.7109 42.7973C57.5026 42.7452 57.3984 42.9015 57.3984 43.2661V54.6333C57.3984 60.5447 57.9583 63.5005 59.0781 63.5005H65.25C65.5625 63.5005 65.7188 63.6697 65.7188 64.0083V65.6098C65.7188 65.9223 65.6146 66.0786 65.4062 66.0786H42.2031C41.9948 66.0786 41.8906 65.9744 41.8906 65.7661V64.0083C41.8906 63.6697 42.0208 63.5005 42.2812 63.5005H47.9453C48.388 63.5005 48.6094 63.188 48.6094 62.563V23.3442C48.6094 18.6046 48.2839 16.2348 47.6328 16.2348H43.0625C42.6979 16.2348 42.5156 16.1307 42.5156 15.9223V14.0864C42.5156 13.826 42.6719 13.6958 42.9844 13.6958L53.2578 13.2661C54.612 13.214 58.1016 13.188 63.7266 13.188C66.7995 13.188 69.3776 13.3572 71.4609 13.6958C74.5859 14.1645 77.4766 15.6489 80.1328 18.1489C82.8411 20.7531 84.1953 24.3338 84.1953 28.8911ZM75.9531 29.438C75.9531 26.2869 74.6641 23.2791 72.0859 20.4145C69.5339 17.5239 65.4062 16.0786 59.7031 16.0786C58.7917 16.0786 58.2448 16.1437 58.0625 16.2739C57.9062 16.3781 57.7891 16.6385 57.7109 17.0551C57.5547 18.6437 57.4766 22.5369 57.4766 28.7348C57.4766 28.9692 57.4635 30.7531 57.4375 34.0864C57.4115 37.4197 57.3984 39.1775 57.3984 39.3598C57.3984 39.7244 57.5807 39.9588 57.9453 40.063C59.7161 40.6619 61.7734 40.9614 64.1172 40.9614C68.1276 40.9614 71.0312 40.0499 72.8281 38.227C74.9115 36.1437 75.9531 33.214 75.9531 29.438ZM96.3438 140.383C96.3438 148.196 94.2995 154.628 90.2109 159.68C87.3984 163.144 83.5833 165.644 78.7656 167.18C75.9531 168.092 72.6198 168.547 68.7656 168.547C62.6458 168.547 57.763 167.675 54.1172 165.93C51.6693 164.758 49.638 163.287 48.0234 161.516C43.987 157.089 41.9688 150.605 41.9688 142.063C41.9688 138.469 42.4766 135.136 43.4922 132.063C44.638 128.573 46.474 125.461 49 122.727C51.526 119.993 54.8854 117.857 59.0781 116.321C62.2812 115.149 65.7708 114.563 69.5469 114.563C75.1198 114.563 79.5729 115.279 82.9062 116.711C86.3958 118.222 89.1172 120.253 91.0703 122.805C94.5859 127.388 96.3438 133.248 96.3438 140.383ZM87.3984 142.336C87.3984 138.326 87.0469 135.097 86.3438 132.649C85.5104 129.68 84.0781 126.907 82.0469 124.329C80.3802 122.219 78.2448 120.592 75.6406 119.446C72.8542 118.222 70.0547 117.61 67.2422 117.61C63.8568 117.61 61.2135 118.222 59.3125 119.446C56.6042 121.191 54.5859 123.691 53.2578 126.946C51.7474 130.566 50.9922 134.915 50.9922 139.993C50.9922 147.545 52.3073 153.547 54.9375 158C56.474 160.631 58.8698 162.766 62.125 164.407C64.5729 165.631 67.3464 166.243 70.4453 166.243C73.7005 166.243 76.7604 165.227 79.625 163.196C81.8385 161.659 83.7396 159.016 85.3281 155.266C86.7083 152.011 87.3984 147.701 87.3984 142.336ZM99.9766 219.18C99.9766 219.519 99.8073 219.688 99.4688 219.688H93.9609C93.362 219.688 93.0625 220.026 93.0625 220.704C93.0625 220.912 93.0365 224.362 92.9844 231.055C92.9323 237.722 92.9062 241.342 92.9062 241.915C92.9062 242.461 92.8542 247.11 92.75 255.86C92.6458 264.61 92.5938 269.219 92.5938 269.688C92.5938 270.73 92.3854 271.342 91.9688 271.524C91.1615 271.836 90.5234 271.68 90.0547 271.055C82.9193 262.409 75.5495 253.503 67.9453 244.336C64.1172 239.31 59.5339 233.646 54.1953 227.344C53.8047 227.006 53.5443 227.123 53.4141 227.696C53.3099 228.008 53.1146 232.383 52.8281 240.821C52.5156 249.336 52.3594 254.766 52.3594 257.11C52.3594 264.037 53.0755 267.5 54.5078 267.5H59.3125C59.625 267.5 59.7812 267.618 59.7812 267.852V269.766C59.7812 269.974 59.651 270.079 59.3906 270.079H43.3359C42.9974 270.079 42.8281 270 42.8281 269.844V267.93C42.8281 267.644 42.9974 267.5 43.3359 267.5H48.1016C48.5443 267.5 48.7656 267.318 48.7656 266.954V261.368C48.7656 259.831 49 253.75 49.4688 243.125C49.9635 232.5 50.2109 227.084 50.2109 226.875C50.2109 222.084 48.388 219.688 44.7422 219.688H42.125C41.9167 219.688 41.8125 219.558 41.8125 219.297V217.5C41.8125 217.24 41.9427 217.11 42.2031 217.11H56.0312C56.474 217.11 56.8255 217.331 57.0859 217.774C57.3464 218.191 59.625 221.133 63.9219 226.602C68.2448 232.045 70.6797 235.066 71.2266 235.665C76.7474 242.253 82.5938 249.089 88.7656 256.172C88.8698 256.25 88.974 256.29 89.0781 256.29C89.3125 256.29 89.4427 255.925 89.4688 255.196C89.4948 254.701 89.4948 250.704 89.4688 243.204C89.4688 235.704 89.4427 231.589 89.3906 230.86C89.026 223.412 88.0365 219.688 86.4219 219.688H81.6562C81.2656 219.688 81.0703 219.558 81.0703 219.297V217.5C81.0703 217.24 81.2396 217.11 81.5781 217.11H99.3906C99.7812 217.11 99.9766 217.214 99.9766 217.422V219.18ZM97.7109 348.797C97.7109 349.11 97.5547 349.266 97.2422 349.266H92.2031C91.8906 349.266 91.7344 349.435 91.7344 349.774C91.7344 349.592 91.7083 350.555 91.6562 352.665C91.6042 354.774 91.5781 356.662 91.5781 358.329C91.5781 362.261 91.6562 364.956 91.8125 366.415C91.8125 366.831 91.6172 367.066 91.2266 367.118C89.9505 367.665 88.388 368.329 86.5391 369.11C80.1849 371.454 74.5208 372.625 69.5469 372.625C64.5469 372.625 60.3411 371.987 56.9297 370.711C52.4245 369.019 48.8698 366.401 46.2656 362.86C43.6094 359.214 42.2812 353.967 42.2812 347.118C42.2812 340.06 44.5729 333.849 49.1562 328.485C52.5938 324.448 57.5807 321.545 64.1172 319.774C67.0599 318.967 70.7969 318.563 75.3281 318.563C80.3281 318.563 84.4557 319.071 87.7109 320.086C89.5078 320.633 90.875 321.115 91.8125 321.532C92.1771 321.688 92.3333 321.896 92.2812 322.157C92.0208 323.459 91.7214 324.982 91.3828 326.727C91.1224 328.316 90.7839 330.047 90.3672 331.922C90.3151 332.131 90.1849 332.235 89.9766 332.235C89.4818 332.235 89.2344 332.105 89.2344 331.844C89.2344 331.792 89.0521 330.959 88.6875 329.344C88.375 328.042 87.7109 326.974 86.6953 326.141C82.9193 323.12 77.8151 321.61 71.3828 321.61C65.7057 321.61 60.6927 324.006 56.3438 328.797C52.9844 332.521 51.3047 338.146 51.3047 345.672C51.3047 353.511 53.2318 359.383 57.0859 363.29C61.2786 367.56 66.9036 369.696 73.9609 369.696C78.0755 369.696 81.0573 368.433 82.9062 365.907C83.1406 365.62 83.2578 365.204 83.2578 364.657V359.188C83.2578 356.714 83.2188 354.982 83.1406 353.993C82.9844 350.842 82.724 349.266 82.3594 349.266H74.3516C74.0391 349.266 73.8828 349.032 73.8828 348.563V347.274C73.8828 346.909 74.0651 346.727 74.4297 346.727C74.5078 346.727 76.2786 346.74 79.7422 346.766C83.2318 346.792 85.224 346.805 85.7188 346.805C86.2135 346.805 88.2188 346.792 91.7344 346.766C95.25 346.74 97.0339 346.727 97.0859 346.727C97.5026 346.727 97.7109 346.883 97.7109 347.196V348.797Z" fill="#FAF4F4"/>
<line x1="25" x2="25" y2="458.157" stroke="#FBF9F9" stroke-width="2"/>
<line x1="0.00505044" y1="439.079" x2="396.005" y2="441.079" stroke="#FBF9F9" stroke-width="2"/>
<path d="M201.559 420.922C201.559 422.118 201.117 423.141 200.234 423.993C199.266 424.938 197.883 425.411 196.086 425.411C195.227 425.411 194.402 425.305 193.613 425.094C193.551 425.079 193.52 425.125 193.52 425.235V428.645C193.52 430.418 193.688 431.305 194.023 431.305H195.875C195.969 431.305 196.016 431.356 196.016 431.457V431.938C196.016 432.032 195.984 432.079 195.922 432.079H188.961C188.898 432.079 188.867 432.047 188.867 431.985V431.457C188.867 431.356 188.906 431.305 188.984 431.305H190.684C190.816 431.305 190.883 431.211 190.883 431.024V419.258C190.883 417.836 190.785 417.125 190.59 417.125H189.219C189.109 417.125 189.055 417.094 189.055 417.032V416.481C189.055 416.403 189.102 416.364 189.195 416.364L192.277 416.235C192.684 416.219 193.73 416.211 195.418 416.211C196.34 416.211 197.113 416.262 197.738 416.364C198.676 416.504 199.543 416.95 200.34 417.7C201.152 418.481 201.559 419.555 201.559 420.922ZM199.086 421.086C199.086 420.141 198.699 419.239 197.926 418.379C197.16 417.512 195.922 417.079 194.211 417.079C193.938 417.079 193.773 417.098 193.719 417.137C193.672 417.168 193.637 417.247 193.613 417.372C193.566 417.848 193.543 419.016 193.543 420.875C193.543 420.946 193.539 421.481 193.531 422.481C193.523 423.481 193.52 424.008 193.52 424.063C193.52 424.172 193.574 424.243 193.684 424.274C194.215 424.454 194.832 424.543 195.535 424.543C196.738 424.543 197.609 424.27 198.148 423.723C198.773 423.098 199.086 422.219 199.086 421.086ZM221.525 431.938C221.525 432.032 221.49 432.079 221.42 432.079H217.248C217.06 432.079 216.908 432.032 216.791 431.938C216.377 431.586 215.361 430.36 213.744 428.258C213.009 427.305 212.377 426.258 211.845 425.118C211.791 424.993 211.728 424.93 211.658 424.93C211.228 424.891 210.693 424.84 210.052 424.778C209.92 424.762 209.853 424.821 209.853 424.954C209.853 424.813 209.857 425.176 209.865 426.043C209.873 426.911 209.877 427.809 209.877 428.739C209.877 430.45 210.06 431.305 210.427 431.305H212.349C212.435 431.305 212.478 431.348 212.478 431.434V431.961C212.478 432.04 212.443 432.079 212.373 432.079H205.845C205.736 432.079 205.681 432.04 205.681 431.961V431.457C205.681 431.356 205.728 431.305 205.822 431.305H207.193C207.334 431.305 207.404 431.188 207.404 430.954V424.731C207.404 421.692 207.404 420.172 207.404 420.172C207.388 418.063 207.248 417.008 206.982 417.008H205.634C205.556 417.008 205.517 416.969 205.517 416.891V416.364C205.517 416.286 205.548 416.243 205.611 416.235L209.302 416.141C210.537 416.11 211.466 416.094 212.091 416.094C212.763 416.094 213.322 416.125 213.767 416.188C214.916 416.352 215.869 416.762 216.627 417.418C217.486 418.161 217.916 419.079 217.916 420.172C217.916 421.407 217.494 422.446 216.65 423.29C216.166 423.774 215.412 424.2 214.388 424.567C214.326 424.598 214.302 424.645 214.318 424.707C215.005 425.934 215.814 427.047 216.744 428.047C217.47 428.821 217.955 429.332 218.197 429.582C218.72 430.106 219.173 430.497 219.556 430.754C220.08 431.122 220.662 431.305 221.302 431.305C221.451 431.305 221.525 431.356 221.525 431.457V431.938ZM215.349 420.793C215.349 419.754 215.005 418.907 214.318 418.25C213.412 417.391 212.084 416.961 210.334 416.961C210.06 416.961 209.908 417.04 209.877 417.196C209.877 419.344 209.861 420.696 209.83 421.25C209.83 421.25 209.83 422.082 209.83 423.747C209.83 423.872 209.888 423.946 210.005 423.969C210.302 424.016 210.74 424.032 211.318 424.016C212.099 423.993 212.677 423.926 213.052 423.817C214.584 423.395 215.349 422.387 215.349 420.793ZM241.316 423.77C241.316 426.114 240.702 428.043 239.476 429.559C238.632 430.598 237.487 431.348 236.042 431.809C235.198 432.082 234.198 432.219 233.042 432.219C231.206 432.219 229.741 431.957 228.648 431.434C227.913 431.082 227.304 430.641 226.82 430.11C225.609 428.782 225.003 426.836 225.003 424.274C225.003 423.196 225.155 422.196 225.46 421.274C225.804 420.227 226.355 419.293 227.112 418.473C227.87 417.653 228.878 417.012 230.136 416.551C231.097 416.2 232.144 416.024 233.277 416.024C234.948 416.024 236.284 416.239 237.284 416.668C238.331 417.122 239.148 417.731 239.734 418.497C240.788 419.872 241.316 421.629 241.316 423.77ZM238.632 424.356C238.632 423.153 238.527 422.184 238.316 421.45C238.066 420.559 237.636 419.727 237.027 418.954C236.527 418.321 235.886 417.832 235.105 417.489C234.269 417.122 233.429 416.938 232.585 416.938C231.57 416.938 230.777 417.122 230.206 417.489C229.394 418.012 228.788 418.762 228.39 419.739C227.937 420.825 227.71 422.129 227.71 423.653C227.71 425.918 228.105 427.719 228.894 429.055C229.355 429.844 230.073 430.485 231.05 430.977C231.784 431.344 232.616 431.528 233.546 431.528C234.523 431.528 235.441 431.223 236.3 430.614C236.964 430.153 237.534 429.36 238.011 428.235C238.425 427.258 238.632 425.965 238.632 424.356ZM258.212 416.34C258.212 416.434 258.118 416.786 257.93 417.395C257.884 417.567 257.778 417.895 257.614 418.379C257.575 418.504 257.52 418.567 257.45 418.567C257.356 418.567 257.278 418.512 257.216 418.403C257.153 418.286 257.028 418.118 256.841 417.899C256.481 417.586 255.802 417.36 254.802 417.219C253.505 417.047 251.97 416.961 250.196 416.961C250.102 416.961 250.055 417 250.055 417.079C250.048 417.805 250.02 418.954 249.973 420.524C249.934 422.016 249.915 422.762 249.915 422.762C249.915 422.973 249.993 423.079 250.149 423.079H255.645C255.778 423.079 255.852 423.04 255.868 422.961C255.868 422.961 255.938 422.457 256.079 421.45C256.095 421.348 256.157 421.297 256.266 421.297H256.723C256.802 421.297 256.841 421.356 256.841 421.473C256.841 421.497 256.825 421.84 256.794 422.504C256.763 423.168 256.747 423.551 256.747 423.653C256.747 423.762 256.751 424.18 256.759 424.907C256.766 425.625 256.77 426.008 256.77 426.055C256.77 426.266 256.723 426.372 256.63 426.372H256.149C256.095 426.372 256.055 426.321 256.032 426.219C256.032 426.18 256.005 425.848 255.95 425.223C255.895 424.59 255.868 424.258 255.868 424.227C255.868 424.149 255.802 424.102 255.669 424.086C255.106 424.008 253.274 423.969 250.173 423.969C250.048 423.969 249.985 424.024 249.985 424.133C249.985 424.133 249.985 425.524 249.985 428.305C249.985 430.305 250.2 431.305 250.63 431.305H252.505C252.567 431.305 252.598 431.34 252.598 431.411V431.938C252.598 432.032 252.559 432.079 252.481 432.079H245.802C245.723 432.079 245.684 432.04 245.684 431.961V431.481C245.684 431.364 245.723 431.305 245.802 431.305H247.313C247.446 431.305 247.52 431.239 247.536 431.106C247.552 430.965 247.559 428.434 247.559 423.512V419.504C247.559 417.809 247.415 416.961 247.126 416.961H245.567C245.473 416.961 245.427 416.93 245.427 416.868V416.305C245.427 416.227 245.466 416.188 245.544 416.188H258.048C258.157 416.188 258.212 416.239 258.212 416.34ZM275.108 430.04C274.78 430.61 274.412 431.243 274.006 431.938C273.944 432.032 273.854 432.079 273.737 432.079H262.1C262.022 432.079 261.983 432.032 261.983 431.938V431.434C261.983 431.348 262.014 431.305 262.077 431.305H263.905C264.006 431.305 264.069 431.29 264.092 431.258C264.123 431.219 264.139 431.157 264.139 431.071C264.139 431 264.131 429.825 264.116 427.543C264.1 425.254 264.092 424.075 264.092 424.004C264.092 423.926 264.088 423.153 264.08 421.684C264.073 420.207 264.069 419.426 264.069 419.34C264.069 417.754 263.909 416.961 263.588 416.961H262.1C262.022 416.961 261.983 416.922 261.983 416.844V416.305C261.983 416.266 261.991 416.239 262.006 416.223C262.022 416.2 262.061 416.188 262.123 416.188H273.139C273.287 416.188 273.495 416.18 273.76 416.165C274.026 416.149 274.155 416.141 274.147 416.141C274.248 416.141 274.287 416.18 274.264 416.258C274.123 416.774 273.948 417.36 273.737 418.016C273.666 418.188 273.588 418.274 273.502 418.274C273.51 418.274 273.436 418.204 273.28 418.063C272.944 417.743 272.463 417.528 271.838 417.418C270.221 417.129 268.526 416.977 266.752 416.961C266.627 416.961 266.565 417.008 266.565 417.102C266.534 419.79 266.518 421.711 266.518 422.868C266.518 423.024 266.58 423.102 266.705 423.102H271.897C271.991 423.102 272.053 423.04 272.084 422.915C272.139 422.5 272.202 422.043 272.272 421.543C272.272 421.395 272.323 421.321 272.424 421.321H272.905C273.014 421.321 273.069 421.387 273.069 421.52C273.069 421.551 273.053 421.879 273.022 422.504C272.991 423.122 272.975 423.489 272.975 423.606C272.975 423.723 272.983 424.133 272.998 424.836C273.014 425.54 273.022 425.915 273.022 425.961C273.022 426.133 272.971 426.219 272.87 426.219H272.366C272.272 426.219 272.225 426.165 272.225 426.055C272.225 425.735 272.178 425.141 272.084 424.274C272.069 424.118 271.995 424.04 271.862 424.04C271.799 424.04 270.932 424.024 269.26 423.993C267.588 423.961 266.729 423.946 266.682 423.946C266.588 423.946 266.541 424.016 266.541 424.157V428.645C266.541 430.442 266.748 431.34 267.162 431.34C270.498 431.34 272.924 430.938 274.44 430.133C274.799 429.946 274.983 429.852 274.991 429.852C275.014 429.852 275.045 429.875 275.084 429.922C275.123 429.969 275.131 430.008 275.108 430.04ZM289.098 427.86C289.098 429.032 288.625 430.055 287.68 430.93C287.148 431.415 286.578 431.758 285.969 431.961C285.32 432.165 284.453 432.266 283.367 432.266C281.812 432.266 280.34 431.899 278.949 431.165C278.832 431.11 278.773 430.95 278.773 430.684C278.773 430.629 278.77 430.153 278.762 429.254C278.754 428.356 278.75 427.872 278.75 427.801C278.75 427.707 278.832 427.661 278.996 427.661H279.477C279.617 427.661 279.695 427.707 279.711 427.801C279.711 428.09 279.734 428.372 279.781 428.645C279.906 429.348 280.27 429.961 280.871 430.485C281.48 431 282.32 431.258 283.391 431.258C284.844 431.258 285.844 430.79 286.391 429.852C286.625 429.43 286.742 428.875 286.742 428.188C286.742 427.571 286.527 427.075 286.098 426.7C285.676 426.215 284.844 425.778 283.602 425.387C282.219 424.95 281.109 424.375 280.273 423.665C279.438 422.946 279.02 421.872 279.02 420.442C279.02 419.122 279.602 417.993 280.766 417.055C281.672 416.336 282.848 415.977 284.293 415.977C285.887 415.977 287.137 416.329 288.043 417.032C288.168 417.133 288.238 417.239 288.254 417.348C288.34 417.864 288.383 418.668 288.383 419.762C288.383 419.926 288.348 420.008 288.277 420.008H287.703C287.617 420.008 287.562 419.961 287.539 419.868C287.477 419.594 287.395 419.297 287.293 418.977C287.145 418.5 286.859 418.114 286.438 417.817C285.711 417.325 284.781 417.079 283.648 417.079C282.781 417.079 282.109 417.309 281.633 417.77C281.102 418.293 280.848 418.973 280.871 419.809C280.887 420.372 281.141 420.918 281.633 421.45C281.883 421.715 282.781 422.153 284.328 422.762C285.25 423.129 285.918 423.422 286.332 423.641C287.027 424.008 287.613 424.43 288.09 424.907C288.762 425.579 289.098 426.563 289.098 427.86ZM303.966 427.86C303.966 429.032 303.494 430.055 302.548 430.93C302.017 431.415 301.447 431.758 300.838 431.961C300.189 432.165 299.322 432.266 298.236 432.266C296.681 432.266 295.209 431.899 293.818 431.165C293.701 431.11 293.642 430.95 293.642 430.684C293.642 430.629 293.638 430.153 293.63 429.254C293.623 428.356 293.619 427.872 293.619 427.801C293.619 427.707 293.701 427.661 293.865 427.661H294.345C294.486 427.661 294.564 427.707 294.58 427.801C294.58 428.09 294.603 428.372 294.65 428.645C294.775 429.348 295.138 429.961 295.74 430.485C296.349 431 297.189 431.258 298.259 431.258C299.713 431.258 300.713 430.79 301.259 429.852C301.494 429.43 301.611 428.875 301.611 428.188C301.611 427.571 301.396 427.075 300.966 426.7C300.545 426.215 299.713 425.778 298.47 425.387C297.088 424.95 295.978 424.375 295.142 423.665C294.306 422.946 293.888 421.872 293.888 420.442C293.888 419.122 294.47 417.993 295.634 417.055C296.541 416.336 297.716 415.977 299.162 415.977C300.755 415.977 302.005 416.329 302.912 417.032C303.037 417.133 303.107 417.239 303.123 417.348C303.209 417.864 303.252 418.668 303.252 419.762C303.252 419.926 303.216 420.008 303.146 420.008H302.572C302.486 420.008 302.431 419.961 302.408 419.868C302.345 419.594 302.263 419.297 302.162 418.977C302.013 418.5 301.728 418.114 301.306 417.817C300.58 417.325 299.65 417.079 298.517 417.079C297.65 417.079 296.978 417.309 296.502 417.77C295.97 418.293 295.716 418.973 295.74 419.809C295.755 420.372 296.009 420.918 296.502 421.45C296.752 421.715 297.65 422.153 299.197 422.762C300.119 423.129 300.787 423.422 301.201 423.641C301.896 424.008 302.482 424.43 302.959 424.907C303.63 425.579 303.966 426.563 303.966 427.86ZM314.874 431.985C314.874 432.047 314.843 432.079 314.78 432.079H308.78C308.671 432.079 308.616 432.04 308.616 431.961V431.457C308.616 431.356 308.663 431.305 308.757 431.305H310.105C310.214 431.305 310.269 431.196 310.269 430.977C310.269 430.899 310.265 428.938 310.257 425.094C310.249 421.243 310.245 419.266 310.245 419.165C310.245 417.696 310.101 416.961 309.812 416.961H308.57C308.452 416.961 308.394 416.922 308.394 416.844V416.282C308.394 416.219 308.433 416.188 308.511 416.188H314.534C314.605 416.188 314.64 416.219 314.64 416.282V416.868C314.64 416.93 314.597 416.961 314.511 416.961H313.105C312.956 416.961 312.882 417.016 312.882 417.125C312.882 417.172 312.878 418.934 312.87 422.411C312.863 425.887 312.859 427.743 312.859 427.977C312.859 429.079 312.866 429.723 312.882 429.911C312.937 430.84 313.097 431.305 313.363 431.305H314.757C314.835 431.305 314.874 431.34 314.874 431.411V431.985ZM335.427 423.77C335.427 426.114 334.813 428.043 333.587 429.559C332.743 430.598 331.598 431.348 330.153 431.809C329.309 432.082 328.309 432.219 327.153 432.219C325.317 432.219 323.852 431.957 322.759 431.434C322.024 431.082 321.415 430.641 320.93 430.11C319.72 428.782 319.114 426.836 319.114 424.274C319.114 423.196 319.266 422.196 319.571 421.274C319.915 420.227 320.466 419.293 321.223 418.473C321.981 417.653 322.989 417.012 324.247 416.551C325.208 416.2 326.255 416.024 327.387 416.024C329.059 416.024 330.395 416.239 331.395 416.668C332.442 417.122 333.259 417.731 333.845 418.497C334.899 419.872 335.427 421.629 335.427 423.77ZM332.743 424.356C332.743 423.153 332.637 422.184 332.427 421.45C332.177 420.559 331.747 419.727 331.137 418.954C330.637 418.321 329.997 417.832 329.216 417.489C328.38 417.122 327.54 416.938 326.696 416.938C325.68 416.938 324.887 417.122 324.317 417.489C323.505 418.012 322.899 418.762 322.501 419.739C322.048 420.825 321.821 422.129 321.821 423.653C321.821 425.918 322.216 427.719 323.005 429.055C323.466 429.844 324.184 430.485 325.161 430.977C325.895 431.344 326.727 431.528 327.657 431.528C328.634 431.528 329.552 431.223 330.411 430.614C331.075 430.153 331.645 429.36 332.122 428.235C332.536 427.258 332.743 425.965 332.743 424.356ZM357.01 416.809C357.01 416.911 356.959 416.961 356.858 416.961H355.205C355.026 416.961 354.936 417.063 354.936 417.266C354.936 417.329 354.928 418.364 354.913 420.372C354.897 422.372 354.889 423.457 354.889 423.629C354.889 423.793 354.873 425.188 354.842 427.813C354.811 430.438 354.795 431.821 354.795 431.961C354.795 432.274 354.733 432.457 354.608 432.512C354.366 432.606 354.174 432.559 354.034 432.372C351.893 429.778 349.682 427.106 347.401 424.356C346.252 422.848 344.877 421.149 343.276 419.258C343.159 419.157 343.08 419.192 343.041 419.364C343.01 419.457 342.952 420.77 342.866 423.301C342.772 425.856 342.725 427.485 342.725 428.188C342.725 430.266 342.94 431.305 343.37 431.305H344.811C344.905 431.305 344.952 431.34 344.952 431.411V431.985C344.952 432.047 344.913 432.079 344.834 432.079H340.018C339.916 432.079 339.866 432.055 339.866 432.008V431.434C339.866 431.348 339.916 431.305 340.018 431.305H341.448C341.58 431.305 341.647 431.25 341.647 431.141V429.465C341.647 429.004 341.717 427.18 341.858 423.993C342.006 420.805 342.08 419.18 342.08 419.118C342.08 417.68 341.534 416.961 340.44 416.961H339.655C339.592 416.961 339.561 416.922 339.561 416.844V416.305C339.561 416.227 339.6 416.188 339.678 416.188H343.827C343.959 416.188 344.065 416.254 344.143 416.387C344.221 416.512 344.905 417.395 346.194 419.036C347.491 420.668 348.221 421.575 348.385 421.754C350.041 423.731 351.795 425.782 353.647 427.907C353.678 427.93 353.709 427.942 353.741 427.942C353.811 427.942 353.85 427.832 353.858 427.614C353.866 427.465 353.866 426.266 353.858 424.016C353.858 421.766 353.85 420.532 353.834 420.313C353.725 418.079 353.428 416.961 352.944 416.961H351.514C351.397 416.961 351.338 416.922 351.338 416.844V416.305C351.338 416.227 351.389 416.188 351.491 416.188H356.834C356.952 416.188 357.01 416.219 357.01 416.282V416.809ZM376.355 431.961C376.355 432.04 376.332 432.079 376.285 432.079H370.543C370.496 432.079 370.473 432.032 370.473 431.938V431.481C370.473 431.364 370.523 431.305 370.625 431.305H372.031C372.148 431.305 372.199 431.235 372.184 431.094C372.176 431.071 372.168 431.04 372.16 431C372.113 430.844 371.855 430.102 371.387 428.774C370.895 427.407 370.621 426.668 370.566 426.559C370.512 426.395 370.426 426.313 370.309 426.313H364.719C364.625 426.336 364.559 426.387 364.52 426.465C364.129 427.582 363.809 428.571 363.559 429.43C363.371 429.993 363.254 430.493 363.207 430.93C363.223 431.18 363.293 431.305 363.418 431.305H365.176C365.27 431.305 365.316 431.364 365.316 431.481V431.961C365.316 432.04 365.277 432.079 365.199 432.079H360.23C360.145 432.079 360.102 432.04 360.102 431.961V431.434C360.102 431.348 360.137 431.305 360.207 431.305H361.086C361.234 431.305 361.43 431.075 361.672 430.614C362.586 428.465 363.527 426.258 364.496 423.993C366.285 419.907 367.301 417.61 367.543 417.102C367.754 416.672 367.922 416.29 368.047 415.954C368.148 415.696 368.238 415.559 368.316 415.543C368.707 415.481 369.172 415.391 369.711 415.274C369.805 415.243 369.859 415.227 369.875 415.227C369.938 415.227 369.996 415.258 370.051 415.321C370.105 415.383 370.133 415.457 370.133 415.543C370.094 415.598 370.055 415.649 370.016 415.696C369.984 415.735 369.906 415.836 369.781 416C369.633 416.196 369.559 416.364 369.559 416.504C369.559 416.645 369.617 416.942 369.734 417.395C369.859 417.911 370.25 418.997 370.906 420.653C371.016 420.926 371.512 422.293 372.395 424.754C373.207 427.02 373.91 428.766 374.504 429.993C374.934 430.868 375.238 431.305 375.418 431.305H376.262C376.324 431.305 376.355 431.364 376.355 431.481V431.961ZM370.062 425.305C369.969 425.024 369.602 424 368.961 422.235C368.68 421.344 368.383 420.411 368.07 419.434C367.992 419.161 367.898 419.024 367.789 419.024C367.68 419.024 367.574 419.161 367.473 419.434C367.176 420.153 366.848 420.954 366.488 421.836C366.035 422.899 365.555 424.032 365.047 425.235C365.016 425.336 365 425.399 365 425.422C365.008 425.461 365.039 425.481 365.094 425.481H370.016C370.086 425.481 370.102 425.422 370.062 425.305ZM392.97 430.11C392.97 430.227 392.818 430.54 392.513 431.047C392.505 431.063 392.369 431.329 392.103 431.844C392.025 432 391.939 432.079 391.845 432.079H379.986C379.892 432.079 379.845 432.04 379.845 431.961V431.434C379.845 431.348 379.884 431.305 379.962 431.305H381.521C381.662 431.305 381.732 431.227 381.732 431.071C381.732 431.079 381.72 430.762 381.697 430.122C381.673 429.481 381.662 428.926 381.662 428.457C381.662 427.731 381.677 426.161 381.709 423.747C381.748 421.332 381.767 419.903 381.767 419.457C381.767 417.793 381.607 416.961 381.287 416.961H380.197C380.072 416.961 380.009 416.911 380.009 416.809V416.34C380.009 416.239 380.064 416.188 380.173 416.188H386.83C386.908 416.188 386.947 416.219 386.947 416.282V416.844C386.947 416.922 386.916 416.961 386.853 416.961H384.662C384.529 416.961 384.451 417.016 384.427 417.125C384.404 417.227 384.369 419.102 384.322 422.75C384.283 426.133 384.263 428.09 384.263 428.622C384.263 430.434 384.47 431.34 384.884 431.34C386.767 431.34 388.189 431.297 389.15 431.211C390.244 431.125 391.341 430.758 392.443 430.11C392.63 430 392.759 429.946 392.83 429.946C392.923 430 392.97 430.055 392.97 430.11Z" fill="#FBF5F5"/>
<path d="M90.543 465.86C90.543 467.032 90.0703 468.055 89.125 468.93C88.5938 469.415 88.0234 469.758 87.4141 469.961C86.7656 470.165 85.8984 470.266 84.8125 470.266C83.2578 470.266 81.7852 469.899 80.3945 469.165C80.2773 469.11 80.2188 468.95 80.2188 468.684C80.2188 468.629 80.2148 468.153 80.207 467.254C80.1992 466.356 80.1953 465.872 80.1953 465.801C80.1953 465.707 80.2773 465.661 80.4414 465.661H80.9219C81.0625 465.661 81.1406 465.707 81.1562 465.801C81.1562 466.09 81.1797 466.372 81.2266 466.645C81.3516 467.348 81.7148 467.961 82.3164 468.485C82.9258 469 83.7656 469.258 84.8359 469.258C86.2891 469.258 87.2891 468.79 87.8359 467.852C88.0703 467.43 88.1875 466.875 88.1875 466.188C88.1875 465.571 87.9727 465.075 87.543 464.7C87.1211 464.215 86.2891 463.778 85.0469 463.387C83.6641 462.95 82.5547 462.375 81.7188 461.665C80.8828 460.946 80.4648 459.872 80.4648 458.442C80.4648 457.122 81.0469 455.993 82.2109 455.055C83.1172 454.336 84.293 453.977 85.7383 453.977C87.332 453.977 88.582 454.329 89.4883 455.032C89.6133 455.133 89.6836 455.239 89.6992 455.348C89.7852 455.864 89.8281 456.668 89.8281 457.762C89.8281 457.926 89.793 458.008 89.7227 458.008H89.1484C89.0625 458.008 89.0078 457.961 88.9844 457.868C88.9219 457.594 88.8398 457.297 88.7383 456.977C88.5898 456.5 88.3047 456.114 87.8828 455.817C87.1562 455.325 86.2266 455.079 85.0938 455.079C84.2266 455.079 83.5547 455.309 83.0781 455.77C82.5469 456.293 82.293 456.973 82.3164 457.809C82.332 458.372 82.5859 458.918 83.0781 459.45C83.3281 459.715 84.2266 460.153 85.7734 460.762C86.6953 461.129 87.3633 461.422 87.7773 461.641C88.4727 462.008 89.0586 462.43 89.5352 462.907C90.207 463.579 90.543 464.563 90.543 465.86ZM110.193 467.993C110.201 468.024 110.134 468.102 109.994 468.227C109.377 468.805 108.361 469.317 106.947 469.762C105.97 470.075 104.572 470.25 102.752 470.29C101.916 470.313 101.005 470.192 100.021 469.926C98.7008 469.575 97.6422 469.032 96.8453 468.297C95.4859 467.055 94.8062 465.168 94.8062 462.637C94.8062 461.192 95.1891 459.778 95.9547 458.395C96.5953 457.239 97.5484 456.27 98.8141 455.489C100.462 454.465 102.341 453.954 104.451 453.954C105.599 453.954 106.783 454.09 108.002 454.364C108.642 454.504 109.22 454.711 109.736 454.985C109.775 455.008 109.791 455.055 109.783 455.125C109.689 455.797 109.591 456.438 109.49 457.047C109.443 457.352 109.388 457.727 109.326 458.172C109.302 458.352 109.24 458.426 109.138 458.395C109.005 458.395 108.939 458.352 108.939 458.266C108.939 458.125 108.916 457.957 108.869 457.762C108.767 457.489 108.681 457.29 108.611 457.165C108.502 456.969 108.341 456.778 108.13 456.59C106.99 455.567 105.693 455.055 104.24 455.055C102.193 455.055 100.623 455.649 99.5289 456.836C98.2164 458.258 97.5602 460.063 97.5602 462.25C97.5602 464.649 98.2516 466.516 99.6344 467.852C100.642 468.821 102.095 469.305 103.994 469.305C104.908 469.305 105.869 469.098 106.877 468.684C107.486 468.434 108.021 468.028 108.482 467.465C108.584 467.34 108.705 467.086 108.845 466.704C108.97 466.352 109.041 466.106 109.056 465.965C109.072 465.825 109.138 465.754 109.255 465.754C109.341 465.754 109.396 465.79 109.42 465.86C109.466 466.047 109.556 466.286 109.689 466.575C109.759 466.739 109.927 467.211 110.193 467.993ZM127.159 468.04C126.831 468.61 126.464 469.243 126.058 469.938C125.995 470.032 125.905 470.079 125.788 470.079H114.152C114.073 470.079 114.034 470.032 114.034 469.938V469.434C114.034 469.348 114.066 469.305 114.128 469.305H115.956C116.058 469.305 116.12 469.29 116.144 469.258C116.175 469.219 116.191 469.157 116.191 469.071C116.191 469 116.183 467.825 116.167 465.543C116.152 463.254 116.144 462.075 116.144 462.004C116.144 461.926 116.14 461.153 116.132 459.684C116.124 458.207 116.12 457.426 116.12 457.34C116.12 455.754 115.96 454.961 115.64 454.961H114.152C114.073 454.961 114.034 454.922 114.034 454.844V454.305C114.034 454.266 114.042 454.239 114.058 454.223C114.073 454.2 114.112 454.188 114.175 454.188H125.191C125.339 454.188 125.546 454.18 125.812 454.165C126.077 454.149 126.206 454.141 126.198 454.141C126.3 454.141 126.339 454.18 126.316 454.258C126.175 454.774 125.999 455.36 125.788 456.016C125.718 456.188 125.64 456.274 125.554 456.274C125.562 456.274 125.487 456.204 125.331 456.063C124.995 455.743 124.515 455.528 123.89 455.418C122.273 455.129 120.577 454.977 118.804 454.961C118.679 454.961 118.616 455.008 118.616 455.102C118.585 457.79 118.57 459.711 118.57 460.868C118.57 461.024 118.632 461.102 118.757 461.102H123.948C124.042 461.102 124.105 461.04 124.136 460.915C124.191 460.5 124.253 460.043 124.323 459.543C124.323 459.395 124.374 459.321 124.476 459.321H124.956C125.066 459.321 125.12 459.387 125.12 459.52C125.12 459.551 125.105 459.879 125.073 460.504C125.042 461.122 125.027 461.489 125.027 461.606C125.027 461.723 125.034 462.133 125.05 462.836C125.066 463.54 125.073 463.915 125.073 463.961C125.073 464.133 125.023 464.219 124.921 464.219H124.417C124.323 464.219 124.277 464.165 124.277 464.055C124.277 463.735 124.23 463.141 124.136 462.274C124.12 462.118 124.046 462.04 123.913 462.04C123.851 462.04 122.984 462.024 121.312 461.993C119.64 461.961 118.78 461.946 118.734 461.946C118.64 461.946 118.593 462.016 118.593 462.157V466.645C118.593 468.442 118.8 469.34 119.214 469.34C122.55 469.34 124.976 468.938 126.491 468.133C126.851 467.946 127.034 467.852 127.042 467.852C127.066 467.852 127.097 467.875 127.136 467.922C127.175 467.969 127.183 468.008 127.159 468.04ZM147.899 454.809C147.899 454.911 147.848 454.961 147.747 454.961H146.095C145.915 454.961 145.825 455.063 145.825 455.266C145.825 455.329 145.817 456.364 145.802 458.372C145.786 460.372 145.778 461.457 145.778 461.629C145.778 461.793 145.763 463.188 145.731 465.813C145.7 468.438 145.684 469.821 145.684 469.961C145.684 470.274 145.622 470.457 145.497 470.512C145.255 470.606 145.063 470.559 144.923 470.372C142.782 467.778 140.571 465.106 138.29 462.356C137.141 460.848 135.766 459.149 134.165 457.258C134.048 457.157 133.97 457.192 133.93 457.364C133.899 457.457 133.841 458.77 133.755 461.301C133.661 463.856 133.614 465.485 133.614 466.188C133.614 468.266 133.829 469.305 134.259 469.305H135.7C135.794 469.305 135.841 469.34 135.841 469.411V469.985C135.841 470.047 135.802 470.079 135.723 470.079H130.907C130.805 470.079 130.755 470.055 130.755 470.008V469.434C130.755 469.348 130.805 469.305 130.907 469.305H132.337C132.47 469.305 132.536 469.25 132.536 469.141V467.465C132.536 467.004 132.606 465.18 132.747 461.993C132.895 458.805 132.97 457.18 132.97 457.118C132.97 455.68 132.423 454.961 131.329 454.961H130.544C130.481 454.961 130.45 454.922 130.45 454.844V454.305C130.45 454.227 130.489 454.188 130.567 454.188H134.716C134.848 454.188 134.954 454.254 135.032 454.387C135.11 454.512 135.794 455.395 137.083 457.036C138.38 458.668 139.11 459.575 139.274 459.754C140.93 461.731 142.684 463.782 144.536 465.907C144.567 465.93 144.598 465.942 144.63 465.942C144.7 465.942 144.739 465.832 144.747 465.614C144.755 465.465 144.755 464.266 144.747 462.016C144.747 459.766 144.739 458.532 144.723 458.313C144.614 456.079 144.317 454.961 143.833 454.961H142.403C142.286 454.961 142.227 454.922 142.227 454.844V454.305C142.227 454.227 142.278 454.188 142.38 454.188H147.723C147.841 454.188 147.899 454.219 147.899 454.282V454.809ZM166.073 454.305C166.018 454.68 165.873 455.313 165.639 456.204C165.608 456.321 165.51 456.379 165.346 456.379C165.166 456.379 165.045 456.313 164.983 456.18C164.827 455.844 164.565 455.629 164.198 455.536C163.94 455.465 163.26 455.383 162.159 455.29C161.112 455.196 160.401 455.149 160.026 455.149C159.916 455.149 159.858 455.204 159.85 455.313C159.756 457.336 159.709 460.938 159.709 466.118C159.709 468.243 159.893 469.305 160.26 469.305H162.135C162.182 469.305 162.205 469.34 162.205 469.411V469.961C162.205 470.04 162.182 470.079 162.135 470.079H155.362C155.284 470.079 155.245 470.04 155.245 469.961V469.434C155.245 469.348 155.284 469.305 155.362 469.305H157.073C157.213 469.305 157.284 469.219 157.284 469.047C157.284 469.024 157.276 468.625 157.26 467.852C157.245 467.079 157.237 466.614 157.237 466.457C157.237 466.325 157.256 464.993 157.295 462.461C157.334 459.922 157.354 458.598 157.354 458.489C157.354 456.247 157.225 455.125 156.967 455.125C155.162 455.125 153.709 455.286 152.608 455.606C152.35 455.684 152.096 455.852 151.846 456.11C151.596 456.36 151.424 456.497 151.33 456.52C151.096 456.551 150.944 456.52 150.873 456.426C150.811 456.356 150.834 456.227 150.944 456.04C151.147 455.352 151.35 454.727 151.553 454.165C151.584 454.063 151.67 454.024 151.811 454.047C151.944 454.063 152.909 454.11 154.705 454.188C156.627 454.266 157.928 454.305 158.608 454.305C160.873 454.305 162.998 454.274 164.983 454.211C165.217 454.204 165.436 454.188 165.639 454.165C165.819 454.133 165.905 454.118 165.897 454.118C166.014 454.118 166.073 454.18 166.073 454.305ZM182.688 468.04C182.359 468.61 181.992 469.243 181.586 469.938C181.523 470.032 181.434 470.079 181.316 470.079H169.68C169.602 470.079 169.562 470.032 169.562 469.938V469.434C169.562 469.348 169.594 469.305 169.656 469.305H171.484C171.586 469.305 171.648 469.29 171.672 469.258C171.703 469.219 171.719 469.157 171.719 469.071C171.719 469 171.711 467.825 171.695 465.543C171.68 463.254 171.672 462.075 171.672 462.004C171.672 461.926 171.668 461.153 171.66 459.684C171.652 458.207 171.648 457.426 171.648 457.34C171.648 455.754 171.488 454.961 171.168 454.961H169.68C169.602 454.961 169.562 454.922 169.562 454.844V454.305C169.562 454.266 169.57 454.239 169.586 454.223C169.602 454.2 169.641 454.188 169.703 454.188H180.719C180.867 454.188 181.074 454.18 181.34 454.165C181.605 454.149 181.734 454.141 181.727 454.141C181.828 454.141 181.867 454.18 181.844 454.258C181.703 454.774 181.527 455.36 181.316 456.016C181.246 456.188 181.168 456.274 181.082 456.274C181.09 456.274 181.016 456.204 180.859 456.063C180.523 455.743 180.043 455.528 179.418 455.418C177.801 455.129 176.105 454.977 174.332 454.961C174.207 454.961 174.145 455.008 174.145 455.102C174.113 457.79 174.098 459.711 174.098 460.868C174.098 461.024 174.16 461.102 174.285 461.102H179.477C179.57 461.102 179.633 461.04 179.664 460.915C179.719 460.5 179.781 460.043 179.852 459.543C179.852 459.395 179.902 459.321 180.004 459.321H180.484C180.594 459.321 180.648 459.387 180.648 459.52C180.648 459.551 180.633 459.879 180.602 460.504C180.57 461.122 180.555 461.489 180.555 461.606C180.555 461.723 180.562 462.133 180.578 462.836C180.594 463.54 180.602 463.915 180.602 463.961C180.602 464.133 180.551 464.219 180.449 464.219H179.945C179.852 464.219 179.805 464.165 179.805 464.055C179.805 463.735 179.758 463.141 179.664 462.274C179.648 462.118 179.574 462.04 179.441 462.04C179.379 462.04 178.512 462.024 176.84 461.993C175.168 461.961 174.309 461.946 174.262 461.946C174.168 461.946 174.121 462.016 174.121 462.157V466.645C174.121 468.442 174.328 469.34 174.742 469.34C178.078 469.34 180.504 468.938 182.02 468.133C182.379 467.946 182.562 467.852 182.57 467.852C182.594 467.852 182.625 467.875 182.664 467.922C182.703 467.969 182.711 468.008 182.688 468.04ZM201.74 461.993C201.74 465.227 200.548 467.571 198.166 469.024C197.306 469.547 196.322 469.891 195.213 470.055C194.556 470.149 193.564 470.196 192.236 470.196C191.634 470.196 190.857 470.176 189.904 470.137C188.959 470.098 188.177 470.079 187.56 470.079H186.189C186.119 470.079 186.076 470.067 186.06 470.043C186.052 470.02 186.048 469.993 186.048 469.961V469.434C186.048 469.348 186.095 469.305 186.189 469.305H187.923C188.048 469.305 188.111 469.188 188.111 468.954C188.111 468.836 188.115 467.832 188.123 465.942C188.13 464.043 188.134 463.008 188.134 462.836C188.134 462.649 188.127 461.731 188.111 460.082C188.095 458.434 188.088 457.543 188.088 457.411C188.088 455.778 187.935 454.961 187.63 454.961H185.849C185.771 454.961 185.732 454.922 185.732 454.844V454.305C185.732 454.266 185.74 454.239 185.755 454.223C185.771 454.2 185.81 454.188 185.873 454.188H193.677C194.802 454.188 195.845 454.34 196.806 454.645C197.767 454.942 198.685 455.485 199.56 456.274C201.013 457.586 201.74 459.493 201.74 461.993ZM199.197 463.387C199.197 462.215 199.084 461.235 198.857 460.446C198.599 459.563 198.138 458.676 197.474 457.786C196.763 456.848 195.857 456.137 194.755 455.653C193.709 455.192 192.693 454.961 191.709 454.961C191.38 454.961 191.099 454.985 190.865 455.032C190.693 455.071 190.607 455.223 190.607 455.489C190.607 455.606 190.603 456.559 190.595 458.348C190.588 460.137 190.584 461.153 190.584 461.395V466.071C190.584 468.094 190.713 469.133 190.97 469.188C191.478 469.305 192.463 469.364 193.923 469.364C195.548 469.364 196.755 468.961 197.545 468.157C198.646 467.04 199.197 465.45 199.197 463.387ZM229.532 461.993C229.532 465.227 228.341 467.571 225.958 469.024C225.098 469.547 224.114 469.891 223.005 470.055C222.348 470.149 221.356 470.196 220.028 470.196C219.427 470.196 218.649 470.176 217.696 470.137C216.751 470.098 215.97 470.079 215.352 470.079H213.981C213.911 470.079 213.868 470.067 213.852 470.043C213.845 470.02 213.841 469.993 213.841 469.961V469.434C213.841 469.348 213.887 469.305 213.981 469.305H215.716C215.841 469.305 215.903 469.188 215.903 468.954C215.903 468.836 215.907 467.832 215.915 465.942C215.923 464.043 215.927 463.008 215.927 462.836C215.927 462.649 215.919 461.731 215.903 460.082C215.887 458.434 215.88 457.543 215.88 457.411C215.88 455.778 215.727 454.961 215.423 454.961H213.641C213.563 454.961 213.524 454.922 213.524 454.844V454.305C213.524 454.266 213.532 454.239 213.548 454.223C213.563 454.2 213.602 454.188 213.665 454.188H221.47C222.595 454.188 223.637 454.34 224.598 454.645C225.559 454.942 226.477 455.485 227.352 456.274C228.805 457.586 229.532 459.493 229.532 461.993ZM226.989 463.387C226.989 462.215 226.876 461.235 226.649 460.446C226.391 459.563 225.93 458.676 225.266 457.786C224.555 456.848 223.649 456.137 222.548 455.653C221.501 455.192 220.485 454.961 219.501 454.961C219.173 454.961 218.891 454.985 218.657 455.032C218.485 455.071 218.399 455.223 218.399 455.489C218.399 455.606 218.395 456.559 218.387 458.348C218.38 460.137 218.376 461.153 218.376 461.395V466.071C218.376 468.094 218.505 469.133 218.762 469.188C219.27 469.305 220.255 469.364 221.716 469.364C223.341 469.364 224.548 468.961 225.337 468.157C226.438 467.04 226.989 465.45 226.989 463.387ZM240.487 469.985C240.487 470.047 240.455 470.079 240.393 470.079H234.393C234.284 470.079 234.229 470.04 234.229 469.961V469.457C234.229 469.356 234.276 469.305 234.37 469.305H235.717C235.827 469.305 235.881 469.196 235.881 468.977C235.881 468.899 235.877 466.938 235.87 463.094C235.862 459.243 235.858 457.266 235.858 457.165C235.858 455.696 235.713 454.961 235.424 454.961H234.182C234.065 454.961 234.006 454.922 234.006 454.844V454.282C234.006 454.219 234.045 454.188 234.123 454.188H240.147C240.217 454.188 240.252 454.219 240.252 454.282V454.868C240.252 454.93 240.209 454.961 240.123 454.961H238.717C238.569 454.961 238.495 455.016 238.495 455.125C238.495 455.172 238.491 456.934 238.483 460.411C238.475 463.887 238.471 465.743 238.471 465.977C238.471 467.079 238.479 467.723 238.495 467.911C238.549 468.84 238.709 469.305 238.975 469.305H240.37C240.448 469.305 240.487 469.34 240.487 469.411V469.985ZM257.441 454.34C257.441 454.434 257.348 454.786 257.16 455.395C257.113 455.567 257.008 455.895 256.844 456.379C256.805 456.504 256.75 456.567 256.68 456.567C256.586 456.567 256.508 456.512 256.445 456.403C256.383 456.286 256.258 456.118 256.07 455.899C255.711 455.586 255.031 455.36 254.031 455.219C252.734 455.047 251.199 454.961 249.426 454.961C249.332 454.961 249.285 455 249.285 455.079C249.277 455.805 249.25 456.954 249.203 458.524C249.164 460.016 249.145 460.762 249.145 460.762C249.145 460.973 249.223 461.079 249.379 461.079H254.875C255.008 461.079 255.082 461.04 255.098 460.961C255.098 460.961 255.168 460.457 255.309 459.45C255.324 459.348 255.387 459.297 255.496 459.297H255.953C256.031 459.297 256.07 459.356 256.07 459.473C256.07 459.497 256.055 459.84 256.023 460.504C255.992 461.168 255.977 461.551 255.977 461.653C255.977 461.762 255.98 462.18 255.988 462.907C255.996 463.625 256 464.008 256 464.055C256 464.266 255.953 464.372 255.859 464.372H255.379C255.324 464.372 255.285 464.321 255.262 464.219C255.262 464.18 255.234 463.848 255.18 463.223C255.125 462.59 255.098 462.258 255.098 462.227C255.098 462.149 255.031 462.102 254.898 462.086C254.336 462.008 252.504 461.969 249.402 461.969C249.277 461.969 249.215 462.024 249.215 462.133C249.215 462.133 249.215 463.524 249.215 466.305C249.215 468.305 249.43 469.305 249.859 469.305H251.734C251.797 469.305 251.828 469.34 251.828 469.411V469.938C251.828 470.032 251.789 470.079 251.711 470.079H245.031C244.953 470.079 244.914 470.04 244.914 469.961V469.481C244.914 469.364 244.953 469.305 245.031 469.305H246.543C246.676 469.305 246.75 469.239 246.766 469.106C246.781 468.965 246.789 466.434 246.789 461.512V457.504C246.789 455.809 246.645 454.961 246.355 454.961H244.797C244.703 454.961 244.656 454.93 244.656 454.868V454.305C244.656 454.227 244.695 454.188 244.773 454.188H257.277C257.387 454.188 257.441 454.239 257.441 454.34ZM273.974 454.34C273.974 454.434 273.88 454.786 273.693 455.395C273.646 455.567 273.541 455.895 273.377 456.379C273.337 456.504 273.283 456.567 273.212 456.567C273.119 456.567 273.041 456.512 272.978 456.403C272.916 456.286 272.791 456.118 272.603 455.899C272.244 455.586 271.564 455.36 270.564 455.219C269.267 455.047 267.732 454.961 265.959 454.961C265.865 454.961 265.818 455 265.818 455.079C265.81 455.805 265.783 456.954 265.736 458.524C265.697 460.016 265.677 460.762 265.677 460.762C265.677 460.973 265.755 461.079 265.912 461.079H271.408C271.541 461.079 271.615 461.04 271.63 460.961C271.63 460.961 271.701 460.457 271.841 459.45C271.857 459.348 271.92 459.297 272.029 459.297H272.486C272.564 459.297 272.603 459.356 272.603 459.473C272.603 459.497 272.587 459.84 272.556 460.504C272.525 461.168 272.509 461.551 272.509 461.653C272.509 461.762 272.513 462.18 272.521 462.907C272.529 463.625 272.533 464.008 272.533 464.055C272.533 464.266 272.486 464.372 272.392 464.372H271.912C271.857 464.372 271.818 464.321 271.795 464.219C271.795 464.18 271.767 463.848 271.712 463.223C271.658 462.59 271.63 462.258 271.63 462.227C271.63 462.149 271.564 462.102 271.431 462.086C270.869 462.008 269.037 461.969 265.935 461.969C265.81 461.969 265.748 462.024 265.748 462.133C265.748 462.133 265.748 463.524 265.748 466.305C265.748 468.305 265.962 469.305 266.392 469.305H268.267C268.33 469.305 268.361 469.34 268.361 469.411V469.938C268.361 470.032 268.322 470.079 268.244 470.079H261.564C261.486 470.079 261.447 470.04 261.447 469.961V469.481C261.447 469.364 261.486 469.305 261.564 469.305H263.076C263.209 469.305 263.283 469.239 263.298 469.106C263.314 468.965 263.322 466.434 263.322 461.512V457.504C263.322 455.809 263.177 454.961 262.888 454.961H261.33C261.236 454.961 261.189 454.93 261.189 454.868V454.305C261.189 454.227 261.228 454.188 261.306 454.188H273.81C273.92 454.188 273.974 454.239 273.974 454.34ZM294.609 454.809C294.609 454.911 294.577 454.961 294.515 454.961H294.034C293.3 454.961 292.925 454.969 292.909 454.985C292.909 454.915 292.894 455.387 292.863 456.403C292.831 457.504 292.812 458.559 292.804 459.567C292.78 460.997 292.784 462.286 292.816 463.434C292.87 465.879 292.273 467.668 291.023 468.801C290.015 469.715 288.628 470.172 286.863 470.172C285.183 470.172 283.831 470.012 282.808 469.692C281.464 469.27 280.566 468.637 280.113 467.793C279.714 467.043 279.491 465.942 279.445 464.489C279.413 463.528 279.398 461.262 279.398 457.692C279.398 455.872 279.23 454.961 278.894 454.961H277.546C277.468 454.961 277.429 454.922 277.429 454.844V454.34C277.429 454.239 277.468 454.188 277.546 454.188H283.593C283.695 454.188 283.745 454.219 283.745 454.282V454.786C283.745 454.903 283.71 454.961 283.64 454.961H282.257C282.148 454.961 282.081 455.024 282.058 455.149C282.011 455.422 281.988 457.825 281.988 462.356C281.988 464.075 282.034 465.207 282.128 465.754C282.323 466.84 282.843 467.672 283.687 468.25C284.538 468.829 285.691 469.118 287.144 469.118C288.613 469.118 289.792 468.645 290.683 467.7C291.034 467.325 291.312 466.735 291.515 465.93C291.695 465.235 291.784 464.547 291.784 463.868C291.784 461.172 291.769 459.403 291.738 458.559C291.644 456.161 291.394 454.961 290.988 454.961H289.452C289.382 454.961 289.339 454.95 289.323 454.926C289.316 454.903 289.312 454.875 289.312 454.844V454.305C289.312 454.266 289.32 454.239 289.335 454.223C289.351 454.2 289.39 454.188 289.452 454.188H294.468C294.538 454.188 294.577 454.2 294.585 454.223C294.601 454.247 294.609 454.274 294.609 454.305V454.809ZM309.196 465.86C309.196 467.032 308.723 468.055 307.778 468.93C307.247 469.415 306.677 469.758 306.067 469.961C305.419 470.165 304.552 470.266 303.466 470.266C301.911 470.266 300.438 469.899 299.048 469.165C298.93 469.11 298.872 468.95 298.872 468.684C298.872 468.629 298.868 468.153 298.86 467.254C298.852 466.356 298.848 465.872 298.848 465.801C298.848 465.707 298.93 465.661 299.095 465.661H299.575C299.716 465.661 299.794 465.707 299.809 465.801C299.809 466.09 299.833 466.372 299.88 466.645C300.005 467.348 300.368 467.961 300.97 468.485C301.579 469 302.419 469.258 303.489 469.258C304.942 469.258 305.942 468.79 306.489 467.852C306.723 467.43 306.841 466.875 306.841 466.188C306.841 465.571 306.626 465.075 306.196 464.7C305.774 464.215 304.942 463.778 303.7 463.387C302.317 462.95 301.208 462.375 300.372 461.665C299.536 460.946 299.118 459.872 299.118 458.442C299.118 457.122 299.7 455.993 300.864 455.055C301.77 454.336 302.946 453.977 304.391 453.977C305.985 453.977 307.235 454.329 308.141 455.032C308.266 455.133 308.337 455.239 308.352 455.348C308.438 455.864 308.481 456.668 308.481 457.762C308.481 457.926 308.446 458.008 308.376 458.008H307.802C307.716 458.008 307.661 457.961 307.637 457.868C307.575 457.594 307.493 457.297 307.391 456.977C307.243 456.5 306.958 456.114 306.536 455.817C305.809 455.325 304.88 455.079 303.747 455.079C302.88 455.079 302.208 455.309 301.731 455.77C301.2 456.293 300.946 456.973 300.97 457.809C300.985 458.372 301.239 458.918 301.731 459.45C301.981 459.715 302.88 460.153 304.427 460.762C305.348 461.129 306.016 461.422 306.43 461.641C307.126 462.008 307.712 462.43 308.188 462.907C308.86 463.579 309.196 464.563 309.196 465.86ZM326.491 468.04C326.163 468.61 325.795 469.243 325.389 469.938C325.327 470.032 325.237 470.079 325.12 470.079H313.483C313.405 470.079 313.366 470.032 313.366 469.938V469.434C313.366 469.348 313.397 469.305 313.459 469.305H315.288C315.389 469.305 315.452 469.29 315.475 469.258C315.506 469.219 315.522 469.157 315.522 469.071C315.522 469 315.514 467.825 315.498 465.543C315.483 463.254 315.475 462.075 315.475 462.004C315.475 461.926 315.471 461.153 315.463 459.684C315.455 458.207 315.452 457.426 315.452 457.34C315.452 455.754 315.291 454.961 314.971 454.961H313.483C313.405 454.961 313.366 454.922 313.366 454.844V454.305C313.366 454.266 313.373 454.239 313.389 454.223C313.405 454.2 313.444 454.188 313.506 454.188H324.522C324.67 454.188 324.877 454.18 325.143 454.165C325.409 454.149 325.538 454.141 325.53 454.141C325.631 454.141 325.67 454.18 325.647 454.258C325.506 454.774 325.33 455.36 325.12 456.016C325.049 456.188 324.971 456.274 324.885 456.274C324.893 456.274 324.819 456.204 324.663 456.063C324.327 455.743 323.846 455.528 323.221 455.418C321.604 455.129 319.909 454.977 318.135 454.961C318.01 454.961 317.948 455.008 317.948 455.102C317.916 457.79 317.901 459.711 317.901 460.868C317.901 461.024 317.963 461.102 318.088 461.102H323.28C323.373 461.102 323.436 461.04 323.467 460.915C323.522 460.5 323.584 460.043 323.655 459.543C323.655 459.395 323.705 459.321 323.807 459.321H324.288C324.397 459.321 324.452 459.387 324.452 459.52C324.452 459.551 324.436 459.879 324.405 460.504C324.373 461.122 324.358 461.489 324.358 461.606C324.358 461.723 324.366 462.133 324.381 462.836C324.397 463.54 324.405 463.915 324.405 463.961C324.405 464.133 324.354 464.219 324.252 464.219H323.748C323.655 464.219 323.608 464.165 323.608 464.055C323.608 463.735 323.561 463.141 323.467 462.274C323.452 462.118 323.377 462.04 323.245 462.04C323.182 462.04 322.315 462.024 320.643 461.993C318.971 461.961 318.112 461.946 318.065 461.946C317.971 461.946 317.924 462.016 317.924 462.157V466.645C317.924 468.442 318.131 469.34 318.545 469.34C321.881 469.34 324.307 468.938 325.823 468.133C326.182 467.946 326.366 467.852 326.373 467.852C326.397 467.852 326.428 467.875 326.467 467.922C326.506 467.969 326.514 468.008 326.491 468.04ZM345.766 469.938C345.766 470.032 345.73 470.079 345.66 470.079H341.488C341.301 470.079 341.148 470.032 341.031 469.938C340.617 469.586 339.602 468.36 337.984 466.258C337.25 465.305 336.617 464.258 336.086 463.118C336.031 462.993 335.969 462.93 335.898 462.93C335.469 462.891 334.934 462.84 334.293 462.778C334.16 462.762 334.094 462.821 334.094 462.954C334.094 462.813 334.098 463.176 334.105 464.043C334.113 464.911 334.117 465.809 334.117 466.739C334.117 468.45 334.301 469.305 334.668 469.305H336.59C336.676 469.305 336.719 469.348 336.719 469.434V469.961C336.719 470.04 336.684 470.079 336.613 470.079H330.086C329.977 470.079 329.922 470.04 329.922 469.961V469.457C329.922 469.356 329.969 469.305 330.062 469.305H331.434C331.574 469.305 331.645 469.188 331.645 468.954V462.731C331.645 459.692 331.645 458.172 331.645 458.172C331.629 456.063 331.488 455.008 331.223 455.008H329.875C329.797 455.008 329.758 454.969 329.758 454.891V454.364C329.758 454.286 329.789 454.243 329.852 454.235L333.543 454.141C334.777 454.11 335.707 454.094 336.332 454.094C337.004 454.094 337.562 454.125 338.008 454.188C339.156 454.352 340.109 454.762 340.867 455.418C341.727 456.161 342.156 457.079 342.156 458.172C342.156 459.407 341.734 460.446 340.891 461.29C340.406 461.774 339.652 462.2 338.629 462.567C338.566 462.598 338.543 462.645 338.559 462.707C339.246 463.934 340.055 465.047 340.984 466.047C341.711 466.821 342.195 467.332 342.438 467.582C342.961 468.106 343.414 468.497 343.797 468.754C344.32 469.122 344.902 469.305 345.543 469.305C345.691 469.305 345.766 469.356 345.766 469.457V469.938ZM339.59 458.793C339.59 457.754 339.246 456.907 338.559 456.25C337.652 455.391 336.324 454.961 334.574 454.961C334.301 454.961 334.148 455.04 334.117 455.196C334.117 457.344 334.102 458.696 334.07 459.25C334.07 459.25 334.07 460.082 334.07 461.747C334.07 461.872 334.129 461.946 334.246 461.969C334.543 462.016 334.98 462.032 335.559 462.016C336.34 461.993 336.918 461.926 337.293 461.817C338.824 461.395 339.59 460.387 339.59 458.793Z" fill="#FBF5F5"/>
</svg>
